<svg width="128" height="128" xmlns="http://www.w3.org/2000/svg" xml:space="preserve" version="1.1">
 <g>
  <title>Layer 1</title>
  <g stroke="null" id="svg_7">
   <path stroke="null" id="svg_1" fill="#04C1EA" d="m17.71,96.60892c-3.88,-4.31084 -9.05,-12.33013 -8.9,-25.80857c0.13,-11.44537 8.73,-29.64879 30.78,-36.6139c22.05,-6.96511 34.22,-3.65198 44.1,-1.65657c9.88,1.99541 16.05,7.96282 16.05,7.96282l-9,34.20435l-73.03,21.91187z"/>
   <path stroke="null" id="svg_2" fill="#F5C876" d="m56.82,65.34121l-20.27,10.12765l-16.24,13.49726c0,0 -2.02,8.01929 -1.01,10.12765c1.01,2.10836 15.91,18.14694 42.33,18.33519c29.24,0.20707 44.79,-14.11847 50.17,-21.49773s-10.64,-49.75349 -10.64,-49.75349l-13.37,-10.35355l-15.19,2.76722l-8.96,8.43343l-6.82,18.31636z"/>
   <path stroke="null" id="svg_3" fill="#F2A159" d="m70.01,61.89631l22.65,-2.25896c0,0 -2.96,-10.69239 -4.05,-15.49267c-1.24,-5.45914 -1.47,-8.60286 -1.47,-8.60286s2.66,-1.39302 7.2,0.77181c4.54,2.16483 20.68,11.91599 24.63,30.70297c3.44,16.37743 -7.24,29.0464 -7.24,29.0464s-7.2,-9.24289 -9.89,-14.08082c-4.21,-7.5675 -6.49,-13.9114 -6.49,-13.9114l-25.58,1.69422l-1.52,-1.90129l1.76,-5.96741z"/>
   <path stroke="null" id="svg_4" fill="#DCECF6" d="m21.33,68.71082c-2.86,5.38384 0.45,12.01011 0.45,12.01011s-6.49,2.7484 -6.27,9.90175c0.11,3.57668 2.69,7.7934 3.81,8.43343c1.12,0.64004 0.9,-3.46373 2.46,-6.32508c4.03,-7.37925 16.46,-9.07347 25.08,-10.74886s12.16,-7.28513 13.77,-9.28054c4.26,-5.2709 2.69,-20.19883 7.33,-26.84392c7.46,-10.69239 24.52,-9.22407 24.4,-10.41002c-0.12,-1.18595 -14.14,-7.11571 -26.99,2.6731c-8.59,6.55097 -8.43,20.23648 -14.47,24.03905s-24.98,-2.08953 -29.57,6.55097z"/>
   <path stroke="null" id="svg_5" fill="#EE594A" d="m33.39,73.79347c-1.81,1.24243 -0.1,4.83793 0.74,5.74151c1.68,1.80716 3.95,3.70845 3.95,3.70845s-4.77,6.81452 -3.45,10.37237c0.97,2.61662 9.95,-3.87787 9.95,-3.87787c0.09,0 5.54,8.37696 7.86,8.39578c1.73,0.01882 0.56,-12.14189 0.56,-12.14189s7.29,-2.91782 7.29,-7.09689c0,-3.25666 -3.62,-2.31543 -3.62,-2.31543s-21.47,-4.02847 -23.28,-2.78605z"/>
   <path stroke="null" id="svg_6" fill="#F79228" d="m48.84,65.43534c-1.89,-0.32002 -5.37,7.04041 -5.37,7.04041s-10.25,-1.31772 -10.42,1.93894s5.43,4.64968 5.43,6.4945s-4.52,8.65933 -4.11,10.82416c0.41,2.16483 9.36,-7.58633 10.03,-7.11571s7.45,12.80075 8.66,10.69239c1.04,-1.80716 -0.03,-12.40543 -0.03,-12.40543s6.91,-3.08724 6.82,-5.42149c-0.08,-2.31543 -8.71,-4.02847 -8.71,-4.02847s-0.49,-7.7181 -2.3,-8.01929z"/>
  </g>
 </g>
</svg>